<svg viewBox="0 0 496 512"><path d="M496 256c0 137-111.2 248-248.4 248a248 248 0 0 1-239-180.4l95.2 39.3a70.4 70.4 0 0 0 139.1-17.1l84.5-60.2a93.7 93.7 0 0 0 95.8-93.5 93.7 93.7 0 0 0-187.4 0v1.2L176.6 279a70 70 0 0 0-43.5 12.1L0 236.1A248 248 0 0 1 247.6 8C384.8 8 496 119 496 256M155.7 384.3l-30.5-12.6a53 53 0 0 0 27.2 25.8 52.8 52.8 0 0 0 69.1-68.7 52.6 52.6 0 0 0-67.4-29.2l31.5 13a38.9 38.9 0 0 1-29.9 71.7m173.8-129.9c-34.4 0-62.4-28-62.4-62.3a62.5 62.5 0 0 1 124.8 0 62.4 62.4 0 0 1-62.4 62.3m.1-15.6a46.9 46.9 0 1 0 0-93.8 46.9 46.9 0 0 0 0 93.8"/></svg>