<svg xmlns="http://www.w3.org/2000/svg" viewBox="0 0 48 48"><circle cx="24" cy="24" r="20" fill="#E60023"/><path fill="#FFF" d="M24.4439087 11.4161377c-8.6323242 0-13.2153931 5.7946167-13.2153931 12.1030884 0 2.9338379 1.5615234 6.5853882 4.0599976 7.7484131.378418.1762085.581543.1000366.668457-.2669067.0668945-.2784424.4038086-1.6369019.5553589-2.2684326.0484619-.2015381.0246582-.3746338-.1384277-.5731201-.8269653-1.0030518-1.4884644-2.8461304-1.4884644-4.5645752 0-4.4115601 3.3399658-8.6799927 9.0299683-8.6799927 4.9130859 0 8.3530884 3.3484497 8.3530884 8.1369019 0 5.4099731-2.7322998 9.1584473-6.2869263 9.1584473-1.9630737 0-3.4330444-1.6238403-2.9615479-3.6153564.5654297-2.3769531 1.6569214-4.9415283 1.6569214-6.6584473 0-1.5354004-.8230591-2.8169556-2.5299683-2.8169556-2.006958 0-3.6184692 2.0753784-3.6184692 4.8569336 0 1.7700195.5984497 2.9684448.5984497 2.9684448s-1.9822998 8.3815308-2.3453979 9.9415283c-.4019775 1.72229-.2453003 4.1416016-.0713501 5.7233887.4511108.1768799.9024048.3537598 1.3687744.4981079.8168945-1.3278198 2.0349731-3.5056763 2.4864502-5.2422485.2438354-.9361572 1.2468872-4.7546387 1.2468872-4.7546387.6515503 1.2438965 2.5561523 2.296936 4.5831299 2.296936 6.0314941 0 10.378418-5.546936 10.378418-12.4400024-1e-7-6.6084596-5.3915406-11.5515138-12.3299561-11.5515138z"/></svg>