<svg width="32" height="32" viewBox="0 0 32 32" fill="none" xmlns="http://www.w3.org/2000/svg">
  <g clip-path="url(#clip0_3_2)">
    <path
      d="M16 0C11.7565 0 7.68687 1.68571 4.68629 4.68629C1.68571 7.68687 0 11.7565 0 16C0 20.2435 1.68571 24.3131 4.68629 27.3137C7.68687 30.3143 11.7565 32 16 32C20.2435 32 24.3131 30.3143 27.3137 27.3137C30.3143 24.3131 32 20.2435 32 16C32 11.7565 30.3143 7.68687 27.3137 4.68629C24.3131 1.68571 20.2435 0 16 0Z"
      fill="#0766FF"
    />
    <path
      d="M18.1659 20.2408H22.3065L22.9566 16.0345H18.1651V13.7356C18.1651 11.9882 18.736 10.4387 20.3705 10.4387H22.9971V6.76798C22.5356 6.70567 21.5596 6.56924 19.7154 6.56924C15.8644 6.56924 13.6067 8.60293 13.6067 13.2362V16.0345H9.64801V20.2408H13.6067V31.8021C14.3907 31.92 15.1849 32 16 32C16.7369 32 17.456 31.9326 18.1659 31.8366V20.2408Z"
      fill="white"
    />
  </g>
  <defs>
    <clipPath id="clip0_3_2">
      <rect width="32" height="32" fill="white" />
    </clipPath>
  </defs>
</svg>
