<svg width="32" height="32" viewBox="0 0 32 32" fill="none" xmlns="http://www.w3.org/2000/svg">
  <g clip-path="url(#clip0_3_13)">
    <path
      d="M32 27.5556C32 30.0107 30.0107 32 27.5556 32H4.44444C1.99022 32 0 30.0107 0 27.5556V4.44444C0 1.98933 1.99022 0 4.44444 0H27.5556C30.0107 0 32 1.98933 32 4.44444V27.5556Z"
      fill="#0A66C2"
    />
    <path
      d="M5.33331 11.5556H9.77776V26.6667H5.33331V11.5556ZM7.5422 9.77777H7.51731C6.19109 9.77777 5.33331 8.78933 5.33331 7.55466C5.33331 6.29333 6.21776 5.33333 7.56798 5.33333C8.91998 5.33333 9.75287 6.29333 9.77776 7.55466C9.77776 8.78844 8.91998 9.77777 7.5422 9.77777ZM26.6666 26.6667H22.2222V18.5787C22.2222 16.6249 21.1333 15.2915 19.3849 15.2915C18.0506 15.2915 17.3289 16.1911 16.9786 17.0604C16.8506 17.3716 16.8889 18.232 16.8889 18.6667V26.6667H12.4444V11.5556H16.8889V13.8809C17.5298 12.8889 18.5333 11.5556 21.1004 11.5556C24.2809 11.5556 26.6658 13.5556 26.6658 18.0213L26.6666 26.6667Z"
      fill="white"
    />
  </g>
  <defs>
    <clipPath id="clip0_3_13">
      <rect width="32" height="32" fill="white" />
    </clipPath>
  </defs>
</svg>
