<svg width="32" height="32" viewBox="0 0 32 32" fill="none" xmlns="http://www.w3.org/2000/svg">
  <g clip-path="url(#clip0_3_10)">
    <path
      d="M16 32C24.8366 32 32 24.8366 32 16C32 7.16344 24.8366 0 16 0C7.16344 0 0 7.16344 0 16C0 24.8366 7.16344 32 16 32Z"
      fill="#E60023"
    />
    <path
      d="M16.3551 5.93291C9.44923 5.93291 5.78278 10.5686 5.78278 15.6154C5.78278 17.9624 7.03199 20.8837 9.03077 21.8141C9.33351 21.9551 9.49601 21.8941 9.56554 21.6006C9.61906 21.3778 9.88859 20.2911 10.0098 19.7858C10.0486 19.6246 10.0296 19.4861 9.89908 19.3273C9.23751 18.5249 8.70831 17.0504 8.70831 15.6757C8.70831 12.1464 11.3803 8.73169 15.9323 8.73169C19.8628 8.73169 22.6148 11.4104 22.6148 15.2412C22.6148 19.5692 20.4289 22.568 17.5852 22.568C16.0148 22.568 14.8388 21.2689 15.216 19.6757C15.6683 17.7741 16.5415 15.7225 16.5415 14.3489C16.5415 13.1206 15.8831 12.0954 14.5175 12.0954C12.912 12.0954 11.6228 13.7557 11.6228 15.9809C11.6228 17.3969 12.1015 18.3557 12.1015 18.3557C12.1015 18.3557 10.5157 25.0609 10.2252 26.3089C9.90363 27.6867 10.029 29.6222 10.1681 30.8876C10.529 31.0291 10.8901 31.1706 11.2631 31.2861C11.9167 30.2238 12.8911 28.4815 13.2523 27.0923C13.4474 26.3434 14.2498 23.2886 14.2498 23.2886C14.7711 24.2837 16.2947 25.1261 17.9163 25.1261C22.7415 25.1261 26.2191 20.6886 26.2191 15.1741C26.2191 9.88735 21.9058 5.93291 16.3551 5.93291Z"
      fill="white"
    />
  </g>
  <defs>
    <clipPath id="clip0_3_10">
      <rect width="32" height="32" fill="white" />
    </clipPath>
  </defs>
</svg>
